<svg width="14" height="14" viewBox="0 0 14 14" fill="none" xmlns="http://www.w3.org/2000/svg">
<path fill-rule="evenodd" clip-rule="evenodd" d="M2 12.8C2 12.9105 2.08954 13 2.2 13H3.17676V13H11.7928C11.9023 13 11.9914 12.9119 11.9927 12.8024L12 12.2024C12.0013 12.091 11.9114 12 11.8 12H8.75617C8.41836 11.3164 7.91327 10.6989 7.27133 10.1897C6.75523 9.78039 6.16296 9.45087 5.52149 9.21305L5.87112 8.69311C5.93944 8.59151 5.90125 8.45292 5.79053 8.40065L5.09336 8.07151C5.00572 8.03013 4.90102 8.05755 4.84491 8.13657L3.17676 10.4857V6.14288H2V12.1428V12.8V12.8ZM4.98449 10.0116L3.64746 12H7.56865C7.30377 11.5749 6.95645 11.1882 6.53897 10.8571C6.0836 10.496 5.55638 10.2102 4.98449 10.0116Z" fill="#8D9198"/>
<path d="M2.28099 1.12445C2.14876 1.06588 2 1.1627 2 1.30732V7.85714L9.63307 4.75126C9.79652 4.68476 9.80002 4.4546 9.63869 4.38314L2.28099 1.12445Z" fill="#EA3443"/>
</svg>
