<svg width="17" height="17" viewBox="0 0 17 17" fill="none" xmlns="http://www.w3.org/2000/svg">
<path fill-rule="evenodd" clip-rule="evenodd" d="M15 3.5H9V6.5H8V3.5H2C1.72386 3.5 1.5 3.72386 1.5 4V13C1.5 13.2761 1.72386 13.5 2 13.5H8V10.5H9V13.5H15C15.2761 13.5 15.5 13.2761 15.5 13V4C15.5 3.72386 15.2761 3.5 15 3.5ZM9 2.5H8H2C1.17157 2.5 0.5 3.17157 0.5 4V13C0.5 13.8284 1.17157 14.5 2 14.5H8H9H15C15.8284 14.5 16.5 13.8284 16.5 13V4C16.5 3.17157 15.8284 2.5 15 2.5H9Z" fill="white"/>
<path fill-rule="evenodd" clip-rule="evenodd" d="M8.5 10C9.32843 10 10 9.32843 10 8.5C10 7.67157 9.32843 7 8.5 7C7.67157 7 7 7.67157 7 8.5C7 9.32843 7.67157 10 8.5 10ZM8.5 11C9.88071 11 11 9.88071 11 8.5C11 7.11929 9.88071 6 8.5 6C7.11929 6 6 7.11929 6 8.5C6 9.88071 7.11929 11 8.5 11Z" fill="white"/>
</svg>
