<svg width="18" height="18" viewBox="0 0 18 18" fill="none" xmlns="http://www.w3.org/2000/svg">
<path fill-rule="evenodd" clip-rule="evenodd" d="M15 4H3C2.44772 4 2 4.44772 2 5V13C2 13.5523 2.44772 14 3 14H15C15.5523 14 16 13.5523 16 13V5C16 4.44772 15.5523 4 15 4ZM3 3C1.89543 3 1 3.89543 1 5V13C1 14.1046 1.89543 15 3 15H15C16.1046 15 17 14.1046 17 13V5C17 3.89543 16.1046 3 15 3H3Z" fill="#5A6375"/>
<path d="M12 12.5V5.5H10.791V10.4157L7.10821 5.5H6V12.5H7.20896V7.57444L10.8918 12.5H12Z" fill="#5A6375"/>
</svg>
