<svg width="16" height="16" viewBox="0 0 16 16" fill="none" xmlns="http://www.w3.org/2000/svg">
<path fill-rule="evenodd" clip-rule="evenodd" d="M10.8542 6.9125C10.8542 9.08943 9.08943 10.8542 6.9125 10.8542C4.73558 10.8542 2.97083 9.08943 2.97083 6.9125C2.97083 4.73558 4.73558 2.97083 6.9125 2.97083C9.08943 2.97083 10.8542 4.73558 10.8542 6.9125ZM10.3383 11.7319C9.37182 12.4202 8.18944 12.825 6.9125 12.825C3.64712 12.825 1 10.1779 1 6.9125C1 3.64712 3.64712 1 6.9125 1C10.1779 1 12.825 3.64712 12.825 6.9125C12.825 8.18944 12.4202 9.37182 11.7319 10.3383L14.3032 12.9096C14.688 13.2944 14.688 13.9184 14.3032 14.3032C13.9184 14.688 13.2944 14.688 12.9096 14.3032L10.3383 11.7319Z" fill="#5A6375"/>
</svg>
