<svg width="24" height="24" viewBox="0 0 24 24" fill="none" xmlns="http://www.w3.org/2000/svg">
<path d="M16 8.2C16 8.08954 16.0895 8 16.2 8H17.3C17.4105 8 17.5 8.08954 17.5 8.2V9.3C17.5 9.41046 17.4105 9.5 17.3 9.5H16.2C16.0895 9.5 16 9.41046 16 9.3V8.2Z" fill="white"/>
<path d="M16.2 14.5C16.0895 14.5 16 14.5895 16 14.7V15.8C16 15.9105 16.0895 16 16.2 16H17.3C17.4105 16 17.5 15.9105 17.5 15.8V14.7C17.5 14.5895 17.4105 14.5 17.3 14.5H16.2Z" fill="white"/>
<path d="M16 11.2C16 11.0895 16.0895 11 16.2 11H17.3C17.4105 11 17.5 11.0895 17.5 11.2V12.8C17.5 12.9105 17.4105 13 17.3 13H16.2C16.0895 13 16 12.9105 16 12.8V11.2Z" fill="white"/>
<path d="M6.2 11.25C6.08954 11.25 6 11.3395 6 11.45V12.55C6 12.6605 6.08954 12.75 6.2 12.75H11.6C11.7105 12.75 11.8 12.6605 11.8 12.55V11.45C11.8 11.3395 11.7105 11.25 11.6 11.25H6.2Z" fill="white"/>
<path d="M6 8.2C6 8.08954 6.08954 8 6.2 8H13.3C13.4105 8 13.5 8.08954 13.5 8.2V9.3C13.5 9.41046 13.4105 9.5 13.3 9.5H6.2C6.08954 9.5 6 9.41046 6 9.3V8.2Z" fill="white"/>
<path d="M6.2 14.5C6.08954 14.5 6 14.5895 6 14.7V15.8C6 15.9105 6.08954 16 6.2 16H11.6C11.7105 16 11.8 15.9105 11.8 15.8V14.7C11.8 14.5895 11.7105 14.5 11.6 14.5H6.2Z" fill="white"/>
<path fill-rule="evenodd" clip-rule="evenodd" d="M13 4H3.2C3.08954 4 3 4.08954 3 4.2L3.00009 19.8C3.00009 19.9105 3.08964 20 3.20009 20H13C13.3112 19.3168 14.0336 18.8571 14.6998 18.8571C15.3661 18.8571 16.1888 19.3168 16.5 20H20.7999C20.9104 20 20.9999 19.9105 20.9999 19.8V4.2C20.9999 4.08954 20.9104 4 20.7999 4H16.5C16.1888 4.6832 15.3661 5.14286 14.6998 5.14286C14.0336 5.14286 13.3112 4.6832 13 4ZM4.50001 5.5L4.50009 18.5H12.2154C12.851 17.7991 13.7633 17.3571 14.6998 17.3571C15.3543 17.3571 15.9938 17.5738 16.5151 17.8924C16.7761 18.0518 17.0358 18.2542 17.2685 18.5H19.4999V5.5H17.2685C17.0358 5.74578 16.7761 5.94819 16.5151 6.10762C15.9938 6.42615 15.3543 6.64286 14.6998 6.64286C13.7633 6.64286 12.851 6.2009 12.2154 5.5H4.50001Z" fill="white"/>
</svg>
