<svg width="20" height="20" viewBox="0 0 20 20" fill="none" xmlns="http://www.w3.org/2000/svg">
<path fill-rule="evenodd" clip-rule="evenodd" d="M9.28415 4.92156C9.69609 4.56847 10.3039 4.56847 10.7159 4.92156L15.0258 8.61577C15.4451 8.9752 15.4937 9.6065 15.1343 10.0258C14.7749 10.4451 14.1436 10.4937 13.7242 10.1343L10 6.94211L6.27581 10.1343C5.85648 10.4937 5.22518 10.4451 4.86576 10.0258C4.50634 9.6065 4.5549 8.9752 4.97423 8.61577L9.28415 4.92156Z" fill="#5A6375"/>
<path fill-rule="evenodd" clip-rule="evenodd" d="M9.28415 9.92156C9.69609 9.56847 10.3039 9.56847 10.7159 9.92156L15.0258 13.6158C15.4451 13.9752 15.4937 14.6065 15.1343 15.0258C14.7749 15.4451 14.1436 15.4937 13.7242 15.1343L10 11.9421L6.27581 15.1343C5.85648 15.4937 5.22518 15.4451 4.86576 15.0258C4.50634 14.6065 4.5549 13.9752 4.97423 13.6158L9.28415 9.92156Z" fill="#5A6375"/>
</svg>
