<svg width="16" height="17" viewBox="0 0 16 17" fill="none" xmlns="http://www.w3.org/2000/svg">
<path fill-rule="evenodd" clip-rule="evenodd" d="M14.5 3.5H1.5C1.22386 3.5 1 3.72386 1 4V13C1 13.2761 1.22386 13.5 1.5 13.5H14.5C14.7761 13.5 15 13.2761 15 13V4C15 3.72386 14.7761 3.5 14.5 3.5ZM1.5 2.5C0.671573 2.5 0 3.17157 0 4V13C0 13.8284 0.671573 14.5 1.5 14.5H14.5C15.3284 14.5 16 13.8284 16 13V4C16 3.17157 15.3284 2.5 14.5 2.5H1.5Z" fill="white"/>
<path d="M9.56368 8.01716C9.79463 8.21268 9.80032 8.56694 9.57578 8.76978L6.83517 11.2455C6.51362 11.536 6 11.3078 6 10.8745L6 6.07845C6 5.65271 6.49815 5.42175 6.82308 5.69685L9.56368 8.01716Z" fill="white"/>
</svg>
